<?xml version="1.0" encoding="utf-8"?>
<!-- Generator: Adobe Illustrator 25.2.3, SVG Export Plug-In . SVG Version: 6.00 Build 0)  -->
<svg version="1.1" id="Layer_2" xmlns="http://www.w3.org/2000/svg" xmlns:xlink="http://www.w3.org/1999/xlink" x="0px" y="0px"
	 viewBox="0 0 200 200" style="enable-background:new 0 0 200 200;" xml:space="preserve">
<style type="text/css">
	.st0{fill:#B17E49;}
</style>
<path class="st0" d="M100.58,0.58c-55.23,0-100,44.77-100,100s44.77,100,100,100s100-44.77,100-100S155.81,0.58,100.58,0.58z
	 M100.58,185.34c-46.81,0-84.76-37.95-84.76-84.76s37.95-84.76,84.76-84.76s84.76,37.95,84.76,84.76S147.39,185.34,100.58,185.34z"
	/>
<path class="st0" d="M75.58,68.68c20.57-13.84,62.59,10.79,62.38,31.9c-0.21,20.86-41.69,44.82-62.38,30.71
	C57.74,119.13,58.05,80.47,75.58,68.68z"/>
</svg>
